<!-- icon666.com - MILLIONS vector ICONS FREE --><svg version="1.1" id="Capa_1" xmlns="http://www.w3.org/2000/svg" xmlns:xlink="http://www.w3.org/1999/xlink" x="0px" y="0px" viewBox="0 0 491.947 491.947" style="enable-background:new 0 0 491.947 491.947;" xml:space="preserve"><g><g><path d="M445.12,208.64H283.414V46.933C283.414,21.013,262.401,0,236.48,0H46.614C20.811,0.118-0.011,21.13,0.107,46.932 c0,0,0,0.001,0,0.001v189.653c0,25.685,20.822,46.507,46.507,46.507h162.133v162.133c0,25.685,20.822,46.507,46.507,46.507 h189.653c25.802,0.118,46.815-20.703,46.933-46.506c0,0,0-0.001,0-0.001V255.573C491.841,229.736,470.957,208.757,445.12,208.64z M208.747,255.786C208.747,255.786,208.747,255.786,208.747,255.786v6.188L46.614,261.76c-13.903,0-25.173-11.271-25.173-25.173 V46.933c-0.118-14.02,11.151-25.482,25.172-25.6c0.001,0,0.001,0,0.002,0h189.653c14.138,0,25.6,11.462,25.6,25.6v161.92h-6.613 C229.451,208.971,208.629,229.983,208.747,255.786z M470.72,445.227c-0.117,14.02-11.578,25.291-25.598,25.173 c-0.001,0-0.001,0-0.002,0H255.467c-13.903,0-25.173-11.27-25.173-25.173V255.573c-0.118-14.02,11.151-25.482,25.172-25.6 c0.001,0,0.001,0,0.002,0H445.12c14.138,0,25.6,11.461,25.6,25.6V445.227z" fill="#000000" style="fill: rgb(5, 5, 5);"></path></g></g><g><g><path d="M413.334,416.853l-52.907-140.587c-2.621-5.538-9.235-7.902-14.773-5.28c-2.317,1.097-4.183,2.963-5.28,5.28 L288.747,416.64c-2.062,5.538,0.756,11.698,6.293,13.76c5.538,2.062,11.698-0.756,13.76-6.293l12.587-33.707h59.307l12.587,33.707 c1.527,4.223,5.536,7.038,10.027,7.04c5.891-0.003,10.665-4.78,10.662-10.671C413.969,419.24,413.753,418.015,413.334,416.853z M328.64,369.28l21.333-58.667l21.333,58.667H328.64z" fill="#000000" style="fill: rgb(5, 5, 5);"></path></g></g><g><g><path d="M209.387,209.493c-17.972-0.035-35.569-5.137-50.773-14.72c18.803-19.277,30.403-44.436,32.853-71.253h17.92 c5.891,0,10.667-4.776,10.667-10.667s-4.776-10.667-10.667-10.667h-56.96v-39.04c0-5.891-4.776-10.667-10.667-10.667 s-10.667,4.776-10.667,10.667v39.04H73.707c-5.891,0-10.667,4.776-10.667,10.667s4.776,10.667,10.667,10.667H91.84 c2.467,26.813,14.065,51.966,32.853,71.253c-15.218,9.551-32.806,14.65-50.773,14.72c-5.891,0-10.667,4.776-10.667,10.667 c0,5.891,4.776,10.667,10.667,10.667c24.271,0.05,47.966-7.401,67.84-21.333c19.796,13.928,43.422,21.381,67.627,21.333 c5.891,0,10.667-4.776,10.667-10.667C220.054,214.269,215.278,209.493,209.387,209.493z M113.814,123.52h55.893 c-2.26,22.134-12.139,42.796-27.947,58.453C125.967,166.306,116.091,145.649,113.814,123.52z" fill="#000000" style="fill: rgb(5, 5, 5);"></path></g></g><g><g><path d="M491.414,160.853C491.298,72.397,419.868,0.586,331.414,0c-5.891,0-10.667,4.776-10.667,10.667 c0,5.891,4.776,10.667,10.667,10.667c74.301,0.138,135.458,58.482,139.093,132.693h-35.2c-5.891,0-10.667,4.776-10.667,10.667 c0,5.891,4.776,10.667,10.667,10.667h45.44c5.891,0,10.667-4.776,10.667-10.667c0.06-0.639,0.06-1.281,0-1.92 C491.474,162.135,491.474,161.492,491.414,160.853z" fill="#000000" style="fill: rgb(5, 5, 5);"></path></g></g><g><g><path d="M160.747,470.613c-74.222-0.132-135.348-58.352-139.093-132.48H56.64c5.891,0,10.667-4.776,10.667-10.667 S62.531,316.8,56.64,316.8H11.414c-5.891,0-10.667,4.776-10.667,10.667c-0.049,0.568-0.049,1.139,0,1.707 c-0.049,0.568-0.049,1.139,0,1.707c-0.002,88.54,71.462,160.48,160,161.067c5.891,0,10.667-4.776,10.667-10.667 S166.638,470.613,160.747,470.613z" fill="#000000" style="fill: rgb(5, 5, 5);"></path></g></g></svg>