<!-- icon666.com - MILLIONS vector ICONS FREE --><svg viewBox="0 -21 470.4 470" xmlns="http://www.w3.org/2000/svg"><path d="m234.398438 4.199219h-37.597657c14.398438 0 25.597657 11.199219 25.597657 25.601562v176c0 14.398438-11.199219 25.597657-25.597657 25.597657h37.597657c14.402343 0 25.601562-11.199219 25.601562-25.597657v-176c0-13.601562-11.199219-25.601562-25.601562-25.601562zm0 0" fill="#efc36a" style="fill: rgb(224, 239, 107);"></path><path d="m196.800781 4.199219h-167.199219c-14.402343 0-25.601562 12-25.601562 25.601562v176c0 14.398438 11.199219 25.597657 25.601562 25.597657h6.398438l68.800781 53.601562-.800781-53.601562h92c14.398438 0 25.601562-11.199219 25.601562-25.597657v-176c.796876-13.601562-10.402343-25.601562-24.800781-25.601562zm0 0" fill="#f9dd9d" style="fill: rgb(220, 249, 159);"></path><path d="m18.398438 221v-187.199219c0-8 6.402343-14.402343 14.402343-14.402343h178.398438c3.199219 0 6.402343.800781 8.800781 1.601562-4-9.601562-12.800781-16-24-16h-166.398438c-14.402343-.800781-25.601562 11.199219-25.601562 24.800781v176c0 11.199219 7.199219 20.800781 16.800781 24-1.601562-2.402343-2.402343-5.601562-2.402343-8.800781zm0 0" fill="#fffbe1"></path><path d="m135.199219 137.800781h-42.398438l-8 22.398438h-9.601562l34.402343-92.800781h10.398438l34.398438 92.800781h-9.597657zm-21.597657-58.402343-18.402343 50.402343h36.800781zm0 0" fill="#fff2d2"></path><g fill="#63312d"><path d="m119.199219 67.398438 34.402343 92.800781h-9.601562l-8-22.398438h-42.398438l-8 22.398438h-9.601562l34.398438-92.800781zm-24 62.402343h36.800781l-18.398438-50.402343zm29.601562-70.402343h-21.601562l-1.597657 5.601562-34.402343 92.800781-4 10.398438h26.402343l1.597657-5.597657 6.402343-16.800781h31.199219l6.398438 16.800781 1.601562 5.597657h26.398438l-4-10.398438-34.398438-92.800781zm-18.402343 62.402343 7.203124-19.199219 7.199219 19.199219zm0 0" fill="#63312d"></path><path d="m234.398438.199219h-204.796876c-16.800781 0-29.601562 13.601562-29.601562 29.601562v176c0 16.800781 13.601562 29.597657 29.601562 29.597657h5.597657l20 15.203124v14.398438h8v-8l40 31.199219c.800781.800781 1.601562.800781 2.402343.800781.796876 0 1.597657 0 1.597657-.800781 1.601562-.800781 2.402343-2.398438 2.402343-4l-.800781-49.597657h125.597657c16.800781 0 29.601562-13.601562 29.601562-29.601562v-175.199219c0-16-12.800781-29.601562-29.601562-29.601562zm-129.597657 228c-.800781 0-2.402343.800781-3.199219.800781-.800781.800781-.800781 1.601562-.800781 3.199219v45.601562l-62.402343-48.800781c-.796876-.800781-1.597657-.800781-2.398438-.800781h-6.398438c-12 0-21.601562-9.597657-21.601562-21.597657v-176.800781c0-12 9.601562-21.601562 21.601562-21.601562h167.199219c10.398438 0 19.199219 7.199219 21.597657 17.601562 0 1.597657.800781 3.199219.800781 4.800781v176c0 1.597657 0 3.199219-.800781 4.796876-2.398438 9.601562-11.199219 17.601562-21.597657 17.601562zm151.199219-21.597657c0 12-9.601562 21.597657-21.601562 21.597657h-17.597657l2.398438-2.398438c.800781-.800781.800781-1.601562 1.601562-1.601562.800781-.800781 1.597657-2.398438 1.597657-3.199219s.800781-1.601562.800781-2.398438c.800781-1.601562.800781-2.402343 1.601562-4 0-.800781.800781-1.601562.800781-1.601562.796876-1.601562.796876-4 .796876-6.398438v-176.800781c0-2.402343 0-4-.796876-6.402343 0-.796876-.800781-1.597657-.800781-1.597657 0-1.601562-.800781-2.402343-1.601562-4 0-.800781-.800781-1.601562-.800781-2.402343-.796876-.796876-.796876-2.398438-1.597657-3.199219s-.800781-1.597657-1.601562-1.597657c-.800781-.800781-1.597657-1.601562-2.398438-2.402343 0 0 0 0 0-.800781h17.597657c12 0 21.601562 9.601562 21.601562 21.601562zm0 0" fill="#63312d"></path><path d="m146.398438 333.800781-6.398438 4.800781 20.800781 26.398438-20.800781 26.398438 6.398438 4.800781 22.402343-28.800781c.800781-1.597657.800781-3.199219 0-4.796876zm0 0" fill="#63312d"></path><path d="m54.398438 313.800781h8v16h-8zm0 0" fill="#63312d"></path><path d="m54.398438 281.800781h8v16h-8zm0 0" fill="#63312d"></path><path d="m54.398438 345.800781h8v16h-8zm0 0" fill="#63312d"></path><path d="m70.398438 361h16v8h-16zm0 0" fill="#63312d"></path><path d="m134.398438 361h16v8h-16zm0 0" fill="#63312d"></path><path d="m102.398438 361h16v8h-16zm0 0" fill="#63312d"></path><path d="m320.800781 121-22.402343-28.800781c-.796876-1.597657-.796876-3.199219 0-4.800781l22.402343-28.796876 6.398438 4.796876-20.800781 26.402343 20.800781 26.398438zm0 0" fill="#63312d"></path></g><path d="m442.398438 205h-40c13.601562 0 24 10.398438 24 24v170.398438c0 13.601562-10.398438 24-24 24h40c13.601562 0 24-10.398438 24-24v-170.398438c0-13.601562-10.398438-24-24-24zm0 0" fill="#52badb" style="fill: rgb(219, 81, 81);"></path><path d="m402.398438 205h-14.398438l-62.398438-52v52h-93.601562c-13.601562 0-24 10.398438-24 24v170.398438c0 13.601562 10.398438 24 24 24h170.398438c13.601562 0 24-10.398438 24-24v-170.398438c0-13.601562-10.398438-24-24-24zm0 0" fill="#84dbff" style="fill: rgb(255, 133, 133);"></path><path d="m340 164.199219-14.398438-12v52h-93.601562c-13.601562 0-24 10.402343-24 24v170.402343c0 10.398438 6.398438 19.199219 16 22.398438-.800781-2.398438-1.601562-5.601562-1.601562-8.800781v-180c0-7.199219 6.402343-13.597657 13.601562-13.597657h104zm0 0" fill="#c5f1ff" style="fill: rgb(255, 199, 199);"></path><path d="m357.601562 288.199219h18.398438v-8h-55.199219v-16.800781h-8v16.800781h-52.800781v8h16c3.199219 8.800781 12.800781 33.601562 34.398438 53.601562-9.597657 7.199219-22.398438 13.597657-36.796876 16l1.597657 8c16.800781-3.199219 30.402343-10.402343 41.601562-18.402343 11.199219 8.800781 24.800781 15.203124 41.597657 18.402343l1.601562-8c-14.398438-2.402343-27.199219-8.800781-36.800781-16 22.402343-20 32-45.601562 34.402343-53.601562zm-40 48c-19.203124-16.800781-28.800781-38.398438-32-48h64c-4 9.601562-12.800781 31.199219-32 48zm0 0" fill="#fff2d2"></path><path d="m321.601562 262.601562v16.796876h55.199219v8h-18.402343c-3.199219 8.800781-12.796876 34.402343-35.199219 54.402343 9.601562 7.199219 22.402343 13.597657 36.800781 16l-1.601562 8c-16.796876-3.199219-30.398438-10.402343-41.597657-18.402343-11.199219 8.800781-24.800781 15.203124-41.601562 18.402343l-1.597657-8c14.398438-2.402343 27.199219-8.800781 36.796876-16-21.597657-20-31.199219-44.800781-34.398438-53.601562h-16v-8h52.800781v-16.800781h8.800781m-4 72.800781c19.199219-16.800781 28.796876-38.398438 32-48h-64c3.199219 9.601562 12 31.199219 32 48m12-81.597657h-24v16.796876h-52.800781v24h18.398438c4 10.402343 12.800781 28 27.199219 44-8 4.800781-16.796876 8-25.597657 9.601562l-8 1.601562 1.597657 8 3.203124 16 8-1.601562c14.398438-2.398438 28-8 40-16.800781 12 8 25.597657 13.601562 40 16.800781l8 1.601562 1.597657-8 1.601562-8 1.597657-8-8-1.601562c-8.796876-1.601562-17.597657-4.800781-25.597657-9.601562 15.199219-16 23.199219-33.597657 27.199219-44h20.800781v-24h-55.199219zm-32.800781 41.597657h40c-4 8.800781-10.402343 19.199219-20 29.601562-8.800781-10.402343-16-21.601562-20-29.601562zm0 0" fill="#63312d"></path><path d="m442.398438 201h-36v-12h-8v12h-8.796876l-61.601562-51.199219c-1.601562-.800781-3.199219-.800781-4-.800781-1.601562.800781-2.398438 2.398438-2.398438 4v48h-89.601562c-15.199219 0-28 12.800781-28 28v170.398438c0 15.203124 12.800781 28 28 28h210.398438c15.203124 0 28-12.796876 28-28v-170.398438c0-16-12-28-28-28zm-230.398438 198.398438v-170.398438c0-11.199219 8.800781-20 20-20h93.601562c2.398438 0 4-1.601562 4-4v-43.199219l56 46.398438c.796876.800781 1.597657.800781 2.398438.800781h14.398438c11.203124 0 20 8.800781 20 20v170.398438c0 11.203124-8.796876 20-20 20h-170.398438c-11.199219 0-20-8.796876-20-20zm250.398438 0c0 11.203124-8.796876 20-20 20h-20.796876c.796876-.796876 1.597657-1.597657 1.597657-2.398438.800781-.800781.800781-1.601562 1.601562-1.601562.800781-.796876.800781-1.597657 1.597657-2.398438 0-.800781.800781-1.601562.800781-2.398438.800781-.800781.800781-2.402343.800781-3.203124 0-.796876.800781-1.597657.800781-1.597657 0-1.601562.800781-4 .800781-5.601562v-171.199219c0-1.601562 0-4-.800781-5.601562 0-.796876-.800781-1.597657-.800781-1.597657 0-.800781-.800781-2.402343-.800781-3.199219 0-.800781-.800781-1.601562-.800781-2.402343-.796876-.800781-.796876-1.597657-1.597657-2.398438s-.800781-1.601562-1.601562-1.601562c-.800781-.800781-.800781-1.597657-1.597657-2.398438h20.796876c11.203124 0 20 8.800781 20 20zm0 0" fill="#63312d"></path><path d="m398.398438 125h8v16h-8zm0 0" fill="#63312d"></path><path d="m398.398438 93h8v16h-8zm0 0" fill="#63312d"></path><path d="m398.398438 157h8v16h-8zm0 0" fill="#63312d"></path><path d="m342.398438 84.199219h16v8h-16zm0 0" fill="#63312d"></path><path d="m317.601562 84.199219h9.597657v8h-9.597657zm0 0" fill="#63312d"></path><path d="m374.398438 84.199219h16v8h-16zm0 0" fill="#63312d"></path></svg>