<!-- icon666.com - MILLIONS vector ICONS FREE --><svg viewBox="0 0 512 512" xmlns="http://www.w3.org/2000/svg"><path d="m482 96h-227l-2.460938.46875-16.539062 405.53125h246c11.050781 0 20-8.949219 20-20v-366c0-11.050781-8.949219-20-20-20zm0 0" fill="#ececf1"></path><path d="m236 10h-206c-11.050781 0-20 8.949219-20 20v326c0 11.050781 8.949219 20 20 20h177.429688l28.570312 126 70-126c-3.257812-17.03125-66.769531-349.109375-70-366zm0 0" fill="#9de2eb" style="fill: rgb(238, 124, 124);"></path><path d="m316 452c-5.519531 0-10 4.480469-10 10s4.480469 10 10 10 10-4.480469 10-10-4.480469-10-10-10zm0 0" fill="#000000"></path><path d="m482 86h-221.28125l-14.898438-77.878906c-.898437-4.714844-5.019531-8.121094-9.820312-8.121094h-206c-16.542969 0-30 13.457031-30 30v326c0 16.542969 13.457031 30 30 30h169.441406c7.609375 33.53125 26.71875 117.863281 26.890625 118.523438 1.980469 7.578124 9.589844 7.441406 9.6875 7.476562h245.980469c16.542969 0 30-13.457031 30-30v-366c0-16.542969-13.457031-30-30-30zm-462 270v-326c0-5.515625 4.484375-10 10-10h197.730469l66.175781 346c-15.226562 0-248.683594 0-263.90625 0-5.515625 0-10-4.484375-10-10zm269.003906 30-49.039062 88.269531-20.015625-88.269531zm202.996094 96c0 5.515625-4.484375 10-10 10h-229.003906l61.746094-111.144531c.03125-.054688.054687-.117188.082031-.171875 1.03125-1.945313 1.429687-4.257813 1-6.535156 0-.007813 0-.019532-.003907-.027344l-51.277343-268.121094h217.457031c5.515625 0 10 4.484375 10 10zm0 0" fill="#000000"></path><path d="m196 186h-60c-5.523438 0-10 4.476562-10 10s4.476562 9.988281 10 9.988281h48.996094c-4.644532 22.796875-24.851563 40.011719-48.996094 40.011719-27.570312 0-50-22.429688-50-50s22.429688-50 50-50c14.203125 0 27.789062 6.074219 37.269531 16.667969 3.679688 4.117187 10.003907 4.464843 14.117188.785156 4.117187-3.683594 4.46875-10.007813.785156-14.121094-13.269531-14.828125-32.285156-23.332031-52.171875-23.332031-38.597656 0-70 31.402344-70 70s31.402344 70 70 70 70-31.402344 70-70c0-5.523438-4.476562-10-10-10zm0 0" fill="#000000"></path><path d="m389 330.875c11.316406 12.421875 23.953125 23.605469 37.722656 33.300781 4.542969 3.195313 10.773438 2.070313 13.933594-2.417969 3.179688-4.519531 2.097656-10.753906-2.417969-13.933593-13.324219-9.382813-25.5-20.273438-36.292969-32.4375 16.046876-21.003907 28.191407-44.28125 36.191407-69.386719h20.863281c5.523438 0 10-4.476562 10-10s-4.476562-10-10-10h-60v-30c0-5.523438-4.476562-10-10-10s-10 4.476562-10 10v30h-60c-5.523438 0-10 4.476562-10 10s4.476562 10 10 10h20.863281c8 25.105469 20.144531 48.382812 36.191407 69.390625-10.792969 12.160156-22.96875 23.050781-36.292969 32.433594-4.515625 3.179687-5.601563 9.417969-2.417969 13.933593 3.171875 4.507813 9.410156 5.605469 13.933594 2.417969 13.769531-9.695312 26.40625-20.878906 37.722656-33.300781zm28.042969-84.875c-6.71875 19.054688-16.109375 36.902344-28.042969 53.296875-11.933594-16.394531-21.324219-34.242187-28.042969-53.296875zm0 0" fill="#000000"></path><path d="m462 452h-106c-5.523438 0-10 4.476562-10 10s4.476562 10 10 10h106c5.523438 0 10-4.476562 10-10s-4.476562-10-10-10zm0 0" fill="#000000"></path></svg>