<!-- icon666.com - MILLIONS vector ICONS FREE --><svg id="Line" viewBox="0 0 64 64" xmlns="http://www.w3.org/2000/svg"><g fill="#c4a2fc"><path d="m37.06929 39.22155c-5.99187.56226-9.06929 2.05764-9.06929 2.77822s3.07739 2.216 9.06926 2.77823c-.08967-1.82624-.0948-3.62586.00003-5.55645z" fill="#c4a2fc" style="fill: rgb(248, 130, 130);"></path><path d="m44.92225 39.07744a54.98761 54.98761 0 0 0 -5.84448 0 54.97076 54.97076 0 0 0 -.00006 5.84467 54.98986 54.98986 0 0 0 5.8446 0 54.97365 54.97365 0 0 0 -.00006-5.84467z" fill="#c4a2fc" style="fill: rgb(248, 130, 130);"></path><path d="m46.93073 39.22155c.08971 1.82624.09483 3.62586 0 5.55645 5.99188-.56226 9.06927-2.05764 9.06927-2.77823s-3.07739-2.21596-9.06927-2.77822z" fill="#c4a2fc" style="fill: rgb(248, 130, 130);"></path><path d="m44.77821 37.069c-.56221-5.99171-2.05762-9.06938-2.77821-9.06938s-2.21594 3.07767-2.77819 9.06938c1.82619-.08971 3.62583-.09484 5.5564 0z" fill="#c4a2fc" style="fill: rgb(248, 130, 130);"></path><path d="m39.22182 46.93055c.56225 5.992 2.05761 9.06937 2.77819 9.06937s2.21594-3.07742 2.7782-9.06937c-1.82621.08971-3.62582.09484-5.55639 0z" fill="#c4a2fc" style="fill: rgb(248, 130, 130);"></path><path d="m46.791 46.79078a26.05766 26.05766 0 0 1 -2.05566 8.93686 14.03565 14.03565 0 0 0 10.99238-10.99248 26.05627 26.05627 0 0 1 -8.93672 2.05562z" fill="#c4a2fc" style="fill: rgb(248, 130, 130);"></path><path d="m42 20.99955a21.01686 21.01686 0 0 0 -9.72362 2.39065l-13.86228-6.30085a1.00083 1.00083 0 0 0 -1.32421 1.32423l6.30175 13.863a20.99678 20.99678 0 1 0 18.60836-11.27703zm0 37.00045a16.00018 16.00018 0 1 1 16-16.00023 16.01841 16.01841 0 0 1 -16 16.00023z" fill="#c4a2fc" style="fill: rgb(248, 130, 130);"></path><path d="m46.791 37.20871a26.05616 26.05616 0 0 1 8.9367 2.05568 14.03564 14.03564 0 0 0 -10.99234-10.99248 26.05694 26.05694 0 0 1 2.05564 8.9368z" fill="#c4a2fc" style="fill: rgb(248, 130, 130);"></path><path d="m37.20906 46.79078a26.05664 26.05664 0 0 1 -8.93675-2.05562 14.03563 14.03563 0 0 0 10.99235 10.99248 26.05743 26.05743 0 0 1 -2.0556-8.93686z" fill="#c4a2fc" style="fill: rgb(248, 130, 130);"></path><path d="m37.20906 37.20871a26.05706 26.05706 0 0 1 2.0556-8.9368 14.03561 14.03561 0 0 0 -10.99235 10.99248 26.05688 26.05688 0 0 1 8.93675-2.05568z" fill="#c4a2fc" style="fill: rgb(248, 130, 130);"></path></g><path d="m50.323 10.126-6.54618-8.001a3.0827 3.0827 0 0 0 -2.39511-1.125h-20.53531a3.084 3.084 0 0 0 -2.39612 1.126l-6.54413 7.99951a2.93108 2.93108 0 0 0 -.001 3.74853l5.83024 7.12596h-7.11669a3.084 3.084 0 0 0 -2.39612 1.126l-6.54413 7.99949a2.92984 2.92984 0 0 0 -.001 3.74853l6.75088 8.251-3.79843 7.42771a1.015 1.015 0 0 0 1.48222 1.27927l12.01555-7.832h13.02633a3.081 3.081 0 0 0 2.39612-1.126l6.54413-8a2.92913 2.92913 0 0 0 .001-3.748l-5.382-6.57813 11.17504 7.28413a1.01449 1.01449 0 0 0 1.48221-1.2793l-3.79843-7.4277 6.74993-8.25049a2.93106 2.93106 0 0 0 .001-3.74851zm-11.82583 22.49851-6.54417 7.99949a1.02771 1.02771 0 0 1 -.799.376h-13.336a1.0404 1.0404 0 0 0 -.56732.168l-9.06905 5.9111 2.36915-4.63183a.98284.98284 0 0 0 -.11586-1.07227l-7.16039-8.75146a.97568.97568 0 0 1 .001-1.24854l6.54413-7.999a1.02771 1.02771 0 0 1 .799-.376h21.02675l6.85276 8.37549a.97634.97634 0 0 1 -.001 1.24902zm10.2277-19.99951-7.15939 8.75049a.98182.98182 0 0 0 -.11586 1.07178l2.36915 4.63183-9.06909-5.9111a1.0404 1.0404 0 0 0 -.56732-.168h-13.82736l-6.85276-8.37549a.977.977 0 0 1 .001-1.24951l6.54413-7.999a1.02771 1.02771 0 0 1 .79903-.376h20.53531a1.02642 1.02642 0 0 1 .798.375l6.54612 8.00049a.977.977 0 0 1 -.00096 1.24951z" fill="#151a6a" style="fill: rgb(12, 12, 14);"></path><path d="m22.11787 25.77051a1.3347 1.3347 0 0 0 -2.43008.02539l-4.86415 11.8311a.9922.9922 0 0 0 .56732 1.30078 1.03388 1.03388 0 0 0 1.3304-.55468l.95354-2.31934h6.4317l.94374 2.31641a1.03013 1.03013 0 0 0 1.32841.55859.99213.99213 0 0 0 .57131-1.29883zm-3.62071 8.2832 2.40817-5.85742 2.38644 5.85742z" fill="#151a6a" style="fill: rgb(12, 12, 14);"></path><path d="m36.2279 7a1.00025 1.00025 0 1 0 0-2h-8.18216a1.00025 1.00025 0 1 0 0 2h4.84826a18.55547 18.55547 0 0 1 -2.86475 6.40637 21.6834 21.6834 0 0 1 -3.14116-3.90344 1.03582 1.03582 0 0 0 -1.39632-.37012.98793.98793 0 0 0 -.37954 1.36328 23.0138 23.0138 0 0 0 3.59536 4.45673 8.81676 8.81676 0 0 1 -3.036 2.1004.99432.99432 0 0 0 -.64123 1.26319 1.02734 1.02734 0 0 0 1.29344.63232 10.85621 10.85621 0 0 0 3.9073-2.67609 12.98744 12.98744 0 0 0 5.829 2.71369 1.02032 1.02032 0 0 0 1.17659-.82178 1.00277 1.00277 0 0 0 -.841-1.15088 10.88948 10.88948 0 0 1 -4.84174-2.271 20.58686 20.58686 0 0 0 3.43775-7.74267z" fill="#151a6a" style="fill: rgb(12, 12, 14);"></path></svg>