<svg width="1024" height="400" viewBox="0 0 1024 400" fill="none" xmlns="http://www.w3.org/2000/svg">
<path d="M842.074 120.769C840.203 119.898 839.102 119.548 837.916 117.776L838.196 116.587C839.729 116.056 840.098 116.157 841.714 116.458C843.15 117.481 843.614 118.319 844.324 119.86C843.606 120.176 842.841 120.607 842.074 120.769Z" fill="#272723"/>
<path d="M153.667 152.677C155.26 151.733 156.128 151.291 158 151.358C159.182 152.245 159.065 152.45 159.403 153.917C158.966 154.787 158.43 155.669 158.163 156.604C155.815 157.405 152.895 157.446 150.422 157.739L153.667 152.677Z" fill="#272723"/>
<path d="M160.693 163.526C163.644 163.245 166.472 163.401 169.401 163.261C168.326 163.891 167.264 164.545 166.217 165.222L166.324 165.771C167.431 166.409 168.339 166.934 169.253 167.843C168.408 169.261 167.069 169.106 165.826 170.098C165.27 170.541 166.702 171.934 166.65 173.097C166.15 173.533 166.114 173.615 165.412 173.93C163.646 174.723 159.478 175.073 157.771 174.276C159.564 173.674 162.512 173.108 163.711 171.624C161.853 169.896 155.577 170.031 153.007 169.836C155.214 169.171 157.814 168.718 159.065 166.579C159.197 166.352 159.6 165.503 159.801 165.324C160.075 165.079 160.428 164.94 160.741 164.748L160.693 163.526Z" fill="#272723"/>
<path d="M848.181 153.881C849.54 153.276 850.89 152.636 852.266 152.069C854.385 151.195 855.331 151.309 857.432 152.172C857.502 152.388 857.547 152.613 857.641 152.819C858.237 154.149 859.398 155.043 860.456 156.005L860.665 156.853C859.22 157.008 857.817 157.061 856.366 157.088L856.351 157.892L857.264 158.468C857.993 158.933 858.526 159.325 859.054 160.024L856.433 160.085L856.764 160.417L841.712 162.053C844.249 160.223 847.728 158.795 849.705 156.454L849.809 155.219L848.181 153.881Z" fill="#272723"/>
<path d="M844.324 119.86C846.011 122.047 848.106 123.336 850.876 123.715C859.813 124.938 869.154 117.937 876.93 114.486C880.4 112.945 883.939 111.904 887.628 111.024C885.324 112.486 882.488 113.86 880.918 116.13C880.861 117.404 880.732 117.885 881.821 118.809C882.571 119.445 883.861 119.884 884.756 120.317L885.662 120.767C884.108 122.269 881.856 123.97 881.001 125.965C881.36 126.645 881.725 127.113 882.18 127.741C882.871 128.698 882.962 129.225 883.097 130.363C882.487 131.662 881.847 132.177 880.764 133.064C881.238 134.409 881.953 134.838 883.003 135.735L882.979 136.514C879.581 138.404 875.873 138.107 872.109 138.119C875.007 139.603 877.877 141.138 880.719 142.724L874.409 147.082C877.245 149.315 880.061 151.233 883.186 153.039C879.174 151.983 874.183 151.246 870.68 149.024L870.232 148.244C871.014 147.423 871.785 147.011 872.788 146.494L872.422 145.889C870.978 145.992 870.029 146.392 868.824 145.511C869.168 144.508 869.378 144.151 870.006 143.347L869.713 142.586C868.001 138.075 867.015 133.187 866.631 128.381C862.209 135.484 860.212 143.097 859.658 151.445C858.622 152.197 858.618 152.075 857.432 152.173C855.331 151.31 854.385 151.196 852.266 152.069C850.89 152.636 849.54 153.276 848.181 153.882C845.855 153.389 843.771 153.507 841.421 153.631C844.451 150.873 847.429 148.138 850.18 145.098C847.636 145.612 844.203 146.723 841.646 146.502C840.691 146.42 840.357 146.356 839.8 145.575C840.939 143.329 844.754 141.35 846.81 139.819L846.911 138.877C844.007 138.57 841.014 138.855 838.099 138.975C840.446 136.833 842.866 134.985 845.456 133.148L837.64 131.122C838.764 129.995 840.327 128.702 841.102 127.311C841.632 126.355 841.566 126.301 841.208 125.238L839.129 124.497L839.096 123.669C840.011 122.597 841.029 121.71 842.074 120.768C842.84 120.606 843.606 120.176 844.324 119.86Z" fill="#363231"/>
<path d="M899.583 102.711C904.47 103.294 907.332 104.763 910.951 108.054C918.286 114.726 924.346 122.898 930.717 130.468C937.674 138.736 945.118 146.916 952.767 154.549C959.597 161.357 966.915 168.053 974.46 174.065C980.515 178.89 987.524 183.197 992.733 188.925C980.883 187.337 947.985 177.408 936.671 172.391C938.157 171.573 939.816 170.874 940.896 169.53C940.413 167.848 939.413 167.294 938.133 166.134C938.311 165.589 938.175 165.865 938.694 165.261C938.838 165.093 938.986 164.929 939.132 164.763L938.987 163.585C937.815 162.526 936.521 161.642 935.236 160.728C933.843 162.024 931.641 164.706 929.75 164.948C929.172 163.796 929.098 163.79 929.377 162.545C930.589 160.986 931.795 160.236 933.501 159.247L934.16 158.871C932.179 158 931.2 159.92 929.33 159.152C929.224 157.241 929.184 155.28 928.95 153.382C928.585 150.404 927.24 149.585 925 147.836C924.499 145.26 924.227 142.005 921.945 140.439C917.571 143.842 918.173 154.181 916.26 159.217C916.158 159.487 916.048 159.755 915.941 160.023C916.342 160.553 916.733 161.09 917.114 161.635L916.81 162.415C914.127 163.206 910.848 162.891 908.053 162.911C907.518 161.124 907.171 159.566 907.143 157.686C907.125 156.517 907.238 156.251 906.644 155.217C905.067 155.686 902.918 156.494 901.259 156.349C899.901 156.231 899.657 155.533 899.029 154.511C900.419 151.711 904.124 151.464 905.505 148.63L904.763 147.469C902.289 145.834 899.623 145.436 896.772 144.842C898.276 143.924 899.771 142.99 901.256 142.041C902.626 141.15 903.784 140.524 904.127 138.871C902 137.092 898.67 136.948 895.997 136.505C898.865 134.011 901.871 131.642 904.054 128.497C901.616 128.727 898.713 129.238 896.317 128.543C895.426 128.285 895.725 128.4 895.281 127.457C896.668 124.894 899.176 123.037 900.95 120.689L901.308 120.208C899.554 119.355 896.747 118.32 895.496 116.814C894.51 115.627 894.605 115.051 894.721 113.634C895.69 112.404 896.659 111.613 897.932 110.699L898.411 110.36L898.326 109.569C895.869 108.307 892.983 108.033 890.285 107.549C893.263 105.692 896.421 104.225 899.583 102.711Z" fill="#363231"/>
<path d="M32 189.155C43.3428 176.685 56.5129 166.057 68.0513 153.683C77.1579 143.758 86.1462 133.727 95.0163 123.591C101.424 116.251 107.512 108.681 114.82 102.189C117.861 99.486 121.248 97.5804 125.385 97.2821C134.335 96.636 142.589 104.819 148.709 110.409C157.038 118.015 164.896 126.169 172.719 134.288C172.889 138.919 171.663 139.664 170.778 143.701C170.148 146.573 169.864 149.613 169.46 152.53C169.143 154.818 170.74 155.277 170.046 157.544C169.09 158.344 167.078 159.564 166.913 160.722L169.587 162.061C169.686 163.067 169.854 162.699 169.401 163.261C166.472 163.401 163.644 163.245 160.693 163.526C160.091 163.437 159.574 163.282 158.994 163.103C159.266 162.11 159.66 161.005 159.776 159.986C159.965 158.316 159.144 157.811 158.163 156.604C158.43 155.669 158.966 154.787 159.403 153.917C159.065 152.45 159.182 152.245 158 151.358C156.128 151.291 155.26 151.733 153.667 152.677L152.262 151.814C152.226 151.52 152.194 151.224 152.154 150.931C152.02 149.94 151.744 149.089 151.445 148.141C149.422 141.737 149.204 134.506 148.64 127.836C147.377 135.832 147.05 145.1 142.815 152.138C142.897 153.432 143.276 154.206 143.871 155.348L143.531 156.414C142.418 156.484 141.457 156.452 140.353 156.293L140.089 157.042C140.714 158.086 141.635 159.257 141.875 160.447C140.828 162.3 139.849 163.91 139.143 165.937C139.71 167.021 140.339 168.011 141.025 169.024L140.888 169.888C139.842 170.047 138.839 170.117 137.782 170.146C138.491 172.116 140.034 173.865 141.253 175.57C138.07 175.066 136.131 174.698 133.51 172.678C130.427 170.302 128.6 170.075 124.81 169.555C127.183 168.498 129.602 167.639 131.483 165.795L131.503 164.857C128.648 163.534 125.051 163.912 121.953 163.916C125.131 162.661 128.744 161.378 130.85 158.557L130.945 157.467C128.794 156.551 125.496 158.927 124.361 156.443C125.822 154.521 129.059 153.699 129.985 151.635C127.738 150.556 125.11 151.823 122.998 150.572C123.053 149.454 123.775 148.824 124.591 148.099C125.31 147.461 126.14 146.911 126.926 146.357C125.592 145.029 123.446 144.92 123.067 143.113C123.572 141.807 124.332 140.875 123.767 139.548L121.392 138.742L121.032 137.714C121.778 136.228 122.653 135.025 123.682 133.72C122.773 132.374 121.42 131.97 120.517 130.839C119.771 129.906 119.763 121.699 119.049 119.338C118.831 118.618 118.623 117.902 118.39 117.187C117.264 120.349 115.127 124.831 115.14 128.156L116.168 130.037C115.286 131.906 113.531 131.896 112.926 133.845L113.365 134.865C113.751 135.774 114.03 136.633 114.246 137.6C113.536 138.43 111.947 139.653 112.066 140.723C112.251 142.38 113.448 143.957 112.822 145.474L111.717 145.448C110.818 145.431 110.075 145.474 109.199 145.707C109.955 147.829 112.295 148.648 112.791 150.724C111.354 151.268 109.978 151.049 108.482 150.936L108.23 151.495C109.024 152.723 110.445 154.126 110.173 155.575C109.138 155.819 108.101 156.055 107.062 156.283L106.906 156.992C107.897 158.127 110.377 160.222 110.362 161.647C108.168 161.888 105.806 160.938 103.705 160.346C106.513 163.488 109.082 165.952 112.67 168.226C109.189 167.883 105.828 167.688 102.33 167.763C104.539 169.353 106.798 170.904 108.967 172.548C102.433 173.78 96.9937 175.198 90.2353 174.871C92.9384 173.574 95.6237 172.271 98.4183 171.181L92.7804 169.697C92.0536 166.353 91.5655 158.076 89.2819 155.971C88.3026 156.842 88.6237 156.311 88.2976 157.468C87.6425 159.799 84.0475 166.45 84.6132 167.988C85.7476 168.979 86.5091 169.343 86.9018 170.822C85.3608 172.284 82.0681 170.482 81.3444 172.396C82.4986 174.54 84.2792 176.116 85.9832 177.824C84.3527 177.43 81.7251 176.397 80.1444 177.058C80.1096 177.322 80.0927 177.591 80.038 177.852C79.6404 179.743 78.2525 180.774 76.6628 181.685C67.3524 187.019 42.6539 189.2 32 189.155Z" fill="#363231"/>
<path d="M276.797 195.264C281.126 195.157 285.456 195.089 289.787 195.06C296.229 200.672 301.469 211.443 306.26 218.813C315.729 233.379 324.995 248.283 335.623 262.043C343.52 248.063 353.473 235.315 363.051 222.471C369.768 213.463 376.225 204.309 382.692 195.122C391.948 195.231 401.192 195.609 410.461 195.644C405.034 206.043 396.487 215.044 389.504 224.431C375.54 243.202 361.916 262.55 347.222 280.745C362.768 303.804 378.767 326.385 395.083 348.906C396.326 350.518 397.482 352.213 398.672 353.865C390.827 354.891 369.973 355.526 362.83 353.558C354.381 351.23 331.82 309.795 326.907 301.499C321.568 310.005 315.351 318.102 309.512 326.276C302.977 335.426 296.64 344.854 289.676 353.683C280.408 354.585 271.01 354.069 261.72 353.83C280.795 329.258 299.172 304.176 316.852 278.583C312.979 272.878 309.592 266.8 305.921 260.956C300.741 252.706 295.272 244.593 289.856 236.499C280.839 223.019 270.466 210.199 263.224 195.652C267.751 195.62 272.275 195.491 276.797 195.264ZM281.342 204.472C297.374 229.056 317.166 254.321 326.625 282.386C316.543 296.574 305.966 310.462 295.733 324.552C290.849 331.279 285.197 337.696 281.609 345.249L281.132 346.242C286.953 341.269 290.788 334.623 295.131 328.393C301.121 319.905 307.169 311.457 313.272 303.05C317.558 297.124 321.901 290.469 327.103 285.315C328.588 287.34 330.116 289.342 331.466 291.461C342.488 309.2 353.86 326.865 364.402 344.89C369.272 344.785 374.144 344.76 379.015 344.817C366.967 327.641 356.349 309.385 344.72 291.909C334.101 275.951 322.517 260.646 311.573 244.914C302.577 231.982 294.175 217.935 283.847 206.024C283.105 205.169 282.364 204.854 281.342 204.472Z" fill="#E4350E"/>
<path d="M639.501 195.267C647.296 194.851 655.508 195.075 663.308 195.333C673.769 203.742 685.775 223.289 694.471 234.541C710 254.764 726.005 274.603 742.487 294.058C740.704 280.625 741.478 266.893 741.499 253.377C741.527 234.158 741.344 215.03 742.151 195.821C750.406 195.646 758.66 195.584 766.916 195.634C766.191 230.59 766.652 265.695 766.788 300.663L766.845 333.526C766.827 340.521 767.642 348.992 765.733 355.763L764.122 356.413C759.359 356.199 755.123 351.878 751.821 348.759C746.968 343.744 742.413 338.455 737.525 333.469C726.739 322.461 715.612 311.775 705.012 300.586C687.092 281.669 669.461 262.151 650.259 244.522C650.891 256.909 650.54 269.458 650.519 281.869C650.478 305.872 650.278 329.826 650.651 353.831C643.272 354.694 635.423 354.262 627.979 354.3C626.108 345.157 626.849 334.348 626.9 325.019C626.942 308.788 627.181 292.559 627.615 276.335C627.815 266.544 627.186 256.691 627.196 246.885C627.215 229.814 627.713 212.746 627.69 195.661C631.627 195.626 635.567 195.423 639.501 195.267ZM638.229 206.131L637.433 206.963C644.805 230.032 734.322 316.845 755.992 340.905L756.395 340.681C756.257 334.543 756.027 328.42 756.081 322.28C741.019 308.598 728.333 292.522 715.58 276.729L682.427 235.454C674.79 225.762 668.097 215.177 659.326 206.439C652.276 205.682 645.302 205.801 638.229 206.131ZM638.116 230.704C636.356 239.693 636.831 342.783 638.493 345.704C638.701 346.071 638.942 346.205 639.268 346.464C641.455 329.544 639.759 311.256 639.684 294.176C639.599 275.345 640.619 255.936 639.518 237.165C639.394 235.071 639.308 232.483 638.116 230.704ZM754.448 204.064C752.212 212.784 753.835 231.502 753.803 241.363C753.747 258.703 752.86 276.099 753.414 293.434C753.575 298.504 753.291 304.628 755.031 309.386C755.925 306.352 756.378 208.023 755.188 205.103C754.956 204.536 754.82 204.451 754.448 204.064Z" fill="#E4350E"/>
<path d="M859.183 195.675L868.02 195.838C869.634 200.351 871.471 204.784 873.078 209.307L879.824 196.096C882.628 196.077 885.439 195.856 888.239 195.697C890.979 199.069 893.127 202.785 894.999 206.694C903.189 223.797 910.44 241.482 918.124 258.827C929.273 283.913 940.569 308.933 952.012 333.887C953.553 337.294 960.79 350.958 961.009 353.818C957.629 356.056 936.853 354.51 931.743 354.341C928.519 348.95 925.871 343.022 923.056 337.396C916.057 337.556 909.07 337.383 902.072 337.227L821.929 336.938C819.692 342.886 817.035 348.56 814.007 354.144C804.646 354.755 795.276 354.452 785.903 354.333C798.08 329.509 809.659 304.356 821.503 279.369C834.551 251.844 848.067 224.029 859.183 195.675ZM884.101 209.028C881.522 211.574 878.714 213.713 875.825 215.893C884.544 237.475 894.634 258.114 904.544 279.142C908.86 288.3 914.287 297.143 917.331 306.83C896.867 305.846 876.007 306.341 855.503 306.46C847.078 306.51 835.558 307.749 827.393 306.144C826.69 304.128 827.219 302.627 827.934 300.653C831.013 292.15 835.747 283.898 839.539 275.668C848.195 256.881 856.746 238.047 865.194 219.165C864.82 216.949 864.671 214.806 864.602 212.561C854.471 239.656 840.613 265.506 828.164 291.583C820.151 309.026 807.986 329.466 804.222 348.091C811.795 338.201 814.482 327.016 819.799 316.014C841.634 315.676 863.574 316.429 885.41 316.742C898.174 316.925 910.78 316.154 923.533 317.315C928.194 326.14 932.075 335.678 935.512 345.042C939.695 345.057 943.804 345.138 947.968 345.545C942.312 334.516 937.911 323.149 932.875 311.849C923.521 290.867 913.577 270.134 903.973 249.263C899.158 238.8 895.003 227.858 889.797 217.61C888.538 215.133 886.433 210.539 884.101 209.028ZM871.711 233.953C866.657 247.501 859.252 260.5 853.055 273.579C849.403 281.289 846.363 289.978 841.969 297.245C853.232 297.258 864.501 297.5 875.762 297.439C884.888 297.443 894.595 296.763 903.666 297.566C899.729 290.069 873.475 235.482 871.711 233.953ZM847.334 326.298C839.601 326.386 831.749 326.259 824.041 326.94C834.786 329.832 846.98 329.107 858.051 329.242C872.108 329.396 886.166 329.454 900.224 329.416C907.369 329.408 914.695 329.72 921.815 329.22C909.401 324.893 889.979 326.672 876.491 326.584C866.773 326.427 857.054 326.332 847.334 326.298Z" fill="#E4350E"/>
<path d="M502.107 195.707L503.04 195.716C504.547 195.725 506.118 195.634 507.535 196.232C512.08 198.15 513.405 204.213 514.946 208.388C517.113 204.251 520.062 198.381 524.406 196.255C526.088 195.432 527.782 195.365 529.543 195.993C530.429 196.309 530.721 196.64 531.234 197.417C535.301 203.584 537.964 211.209 540.914 217.983C545.169 227.738 549.53 237.446 553.997 247.105C570.452 283.046 587.318 318.792 604.596 354.344C594.528 354.609 584.398 354.366 574.323 354.359C571.075 349.213 568.607 343.461 565.977 337.979C557.649 337.588 549.318 337.414 540.981 337.457C521.394 337.557 501.809 337.491 482.223 337.259C474.979 337.22 467.744 337.556 460.5 337.365L453.239 353.791C444.244 354.251 435.337 354.053 426.341 353.806C442.474 316.79 460.973 280.646 478.55 244.301L493.364 213.141C496.101 207.36 498.608 201.058 502.107 195.707ZM525.876 207.992C523.475 211.065 521.112 214.009 518.3 216.717C521.765 223.94 524.424 231.554 527.633 238.9C534.944 255.356 542.662 271.619 550.789 287.689C553.913 293.989 556.597 300.667 560.027 306.784C540.677 306.339 521.272 306.55 501.916 306.617C489.967 306.659 478.422 307.22 466.499 305.789C474.203 282.929 486.581 260.82 497.405 239.274C500.312 233.487 503.605 227.66 506.182 221.732C506.874 220.139 507.302 218.887 507.061 217.131L506.172 216.383C500.744 220.03 473.848 280.282 468.181 291.509C464.412 298.958 442.923 340.601 443.987 345.805L444.799 346.466C453.2 338.685 453.373 324.59 462.026 316.619C470.93 315.533 480.013 316.033 488.969 316.151L526.765 316.675C538.871 316.85 552.35 315.204 564.235 317.706C571.133 324.911 574.296 335.669 578.746 344.478C582.564 344.459 586.367 344.462 590.183 344.634C584.344 334.141 579.938 322.567 574.851 311.669C565.713 292.439 556.685 273.158 547.766 253.826C543.359 244.016 532.112 214.436 525.876 207.992ZM513.723 232.349C502.852 253.838 490.968 275.297 481.683 297.506L513.796 297.439C524.306 297.418 535.126 296.856 545.589 297.839C538.368 285.11 531.467 272.458 525.435 259.119C521.474 250.359 518.475 240.674 513.723 232.349ZM486.945 326.3C482.386 326.399 469.691 325.551 466.434 327.837L466.616 328.192C477.19 330.645 492.143 329.352 503.22 329.434C515.78 329.527 528.31 330.179 540.877 329.724L541.492 329.664C545.679 329.297 557.604 330.341 560.52 328.998C558.968 327.278 558.342 327.443 556.024 327.304C547.214 326.775 538.225 327.124 529.391 326.98C515.249 326.749 501.089 326.159 486.945 326.3Z" fill="#E4350E"/>
<path d="M162.076 194.715C180.995 193.214 202.209 198.48 217.278 210.176C234.859 223.823 244.473 243.58 247.123 265.446C249.734 287.004 244.739 309.151 231.182 326.379C215.018 346.923 190.374 353.561 165.536 356.501C143.399 357.234 120.103 351.094 103.248 336.194C89.0253 323.619 79.4723 304.154 78.4562 285.186C77.2195 262.1 86.008 238.222 101.468 221.13C117.692 203.193 138.422 195.828 162.076 194.715ZM160.331 216.433C146.316 217.719 134.025 222.192 124.81 233.257C113.935 246.313 109.347 264.143 110.952 280.93C111.047 281.891 111.166 282.85 111.309 283.805C111.451 284.76 111.617 285.711 111.806 286.658C111.995 287.605 112.208 288.547 112.444 289.483C112.679 290.42 112.938 291.35 113.22 292.274C113.501 293.198 113.805 294.114 114.132 295.023C114.459 295.932 114.808 296.832 115.179 297.723C115.55 298.615 115.943 299.498 116.358 300.37C116.772 301.242 117.208 302.103 117.665 302.954C118.123 303.805 118.601 304.644 119.099 305.471C119.597 306.298 120.116 307.113 120.654 307.915C121.193 308.717 121.751 309.505 122.328 310.279C122.905 311.053 123.502 311.812 124.117 312.557C124.732 313.302 125.365 314.031 126.016 314.745C126.666 315.458 127.334 316.155 128.019 316.836C128.704 317.517 129.406 318.181 130.123 318.827C130.841 319.473 131.575 320.101 132.324 320.711C144.117 330.237 158.228 334.194 173.3 332.986C188.277 331.014 201.002 323.386 210.182 311.37C219.159 299.621 224.189 284.306 222.064 269.515C219.746 253.399 209.775 237.529 196.69 227.953C187.256 221.047 172.273 214.623 160.331 216.433ZM161.371 203.314L161.83 203.466C168.235 205.522 175.059 206.185 181.513 208.123C200.893 213.946 218.296 227.766 227.61 245.834C236.207 262.509 235.886 281.919 230.147 299.45C224.961 315.294 215.085 328.602 200.016 336.196C182.565 344.99 160.42 345.851 142.015 339.57C141.084 339.255 140.161 338.917 139.247 338.558C138.333 338.197 137.428 337.814 136.533 337.409C135.638 337.004 134.753 336.578 133.879 336.129C133.004 335.68 132.142 335.211 131.291 334.719C130.44 334.228 129.601 333.716 128.775 333.184C127.95 332.651 127.138 332.098 126.34 331.525C125.541 330.952 124.757 330.36 123.988 329.749C123.219 329.137 122.465 328.507 121.728 327.858C120.989 327.209 120.268 326.543 119.562 325.859C118.857 325.175 118.17 324.473 117.499 323.755C116.829 323.036 116.176 322.302 115.542 321.552C114.908 320.801 114.293 320.035 113.697 319.254C113.1 318.473 112.524 317.678 111.967 316.869C111.409 316.059 110.873 315.236 110.356 314.4C109.84 313.565 109.345 312.716 108.87 311.855C108.395 310.995 107.942 310.124 107.511 309.241C98.7861 291.192 98.0057 266.922 104.756 248.119C110.303 232.671 121.972 221.293 135.969 213.195C131.601 214.697 127.448 216.435 123.378 218.632C106.468 230.851 95.1435 247.698 91.7672 268.408C89.0392 285.142 91.2572 302.544 101.363 316.532C113.137 332.829 132.28 341.836 151.745 344.906C171.333 347.993 193.662 345.056 210.013 333.144C225.251 322.043 232.929 304.538 235.62 286.241C238.372 267.525 234.398 249.591 223.018 234.356C222.636 233.841 222.249 233.33 221.855 232.824C221.461 232.319 221.06 231.818 220.654 231.323C220.247 230.828 219.834 230.337 219.415 229.851C218.996 229.366 218.572 228.886 218.141 228.411C217.71 227.936 217.274 227.467 216.831 227.003C216.389 226.539 215.94 226.081 215.486 225.627C215.032 225.175 214.573 224.728 214.108 224.286C213.643 223.845 213.173 223.409 212.697 222.98C212.221 222.55 211.74 222.127 211.253 221.709C210.767 221.291 210.275 220.879 209.779 220.474C209.282 220.068 208.78 219.669 208.274 219.277C207.767 218.884 207.256 218.497 206.74 218.117C206.223 217.736 205.702 217.363 205.177 216.996C204.651 216.628 204.121 216.268 203.587 215.914C203.052 215.559 202.513 215.212 201.971 214.871C201.427 214.531 200.88 214.197 200.328 213.87C199.777 213.543 199.221 213.223 198.662 212.91C198.103 212.597 197.539 212.291 196.972 211.991C196.404 211.692 195.834 211.4 195.26 211.115C194.685 210.831 194.107 210.553 193.526 210.282C192.945 210.011 192.36 209.748 191.772 209.492C191.184 209.236 190.594 208.988 190 208.747C189.406 208.505 188.809 208.271 188.209 208.045C187.609 207.818 187.007 207.599 186.402 207.388C185.796 207.176 185.188 206.972 184.577 206.776C183.968 206.58 183.355 206.392 182.74 206.211C182.125 206.029 181.508 205.855 180.888 205.69C180.268 205.524 179.647 205.366 179.024 205.217C178.401 205.066 177.776 204.924 177.149 204.789C176.522 204.655 175.893 204.528 175.263 204.408C174.633 204.29 174.002 204.179 173.369 204.075C172.736 203.972 172.102 203.877 171.467 203.789C168.168 203.338 164.692 202.954 161.371 203.314Z" fill="#E4350E"/>
<path d="M371.318 44C393.042 47.9455 411.859 82.7495 428.798 96.6489C437.245 103.579 444.223 98.0227 453.409 97.4183C456.229 97.2324 459.123 97.5605 461.651 98.8836C470.042 103.278 477.238 111.378 484.539 117.424C498.293 128.814 512.379 139.44 525.698 151.388C537.099 140.049 548.067 126.181 561.891 117.72C568.342 113.771 575.31 111.937 582.466 109.723C602.275 103.595 607.345 94.7253 621.168 80.4005C626.618 74.7531 632.789 69.6355 641.1 69.7161C644.915 69.7528 648.951 70.899 652.467 72.3633C668.819 79.1728 674.268 94.7363 686.126 106.378C691.526 102.211 695.99 96.2592 700.462 91.1386C711.397 78.6181 732.344 52.8683 747.053 46.9216C768.086 38.4172 777.538 78.0296 788.138 88.4427C789.694 89.9696 791.552 90.745 793.531 91.5701L794.28 91.8763C800.459 90.1803 806.301 86.1682 812.99 87.3929C821.408 88.9338 827.613 99.0725 830.024 106.726C831.174 110.374 830.546 112.756 832.798 116.17C832.93 116.371 833.067 116.567 833.202 116.767C831.514 117.977 829.91 119.322 828.287 120.617C828.688 121.523 829.278 122.599 829.478 123.562C829.758 124.909 829.598 125.296 828.944 126.377C828.038 126.368 827.235 126.388 826.33 126.495C826.183 128.956 829.243 129.733 829.18 131.92L827.094 132.127L826.587 132.757C826.979 134.297 827.446 135.63 827.061 137.224C825.451 138.053 822.723 137.213 820.979 136.931C823.348 139.562 825.654 142.247 827.898 144.986C826.574 145.136 825.238 145.272 823.924 145.496C822.397 145.758 821.643 146.223 820.769 147.469L821.195 148.699C823.054 150.444 824.954 151.292 827.239 152.328C824.875 152.825 822.129 153.133 820.427 154.997L820.553 156.121C822.703 158.171 825.588 159.249 828.25 160.503C823.572 160.254 812.307 161.447 808.496 158.577C809.675 156.257 816.204 153.05 818.675 151.558C815.79 151.933 812.387 153.133 809.562 153.13C808.166 153.129 807.8 152.563 806.81 151.693L807.022 150.71C807.586 150.331 808.198 149.952 808.73 149.525C809.987 148.516 810.158 148.484 810.389 146.954C809.247 145.697 807.784 145.331 806.231 144.782C806.537 142.636 806.96 140.571 806.319 138.453C804.253 131.616 802.832 124.636 801.456 117.635C800.85 122.22 799.733 126.178 798.37 130.571C800.913 134.032 797.376 132.658 797.289 135.194C797.257 136.158 798.438 136.63 798.284 138.147C798.091 138.268 797.893 138.384 797.704 138.513C794.936 140.407 798.525 141.494 798.025 144.017L796.266 144.572C795.461 146.204 797.219 145.81 797.375 147.622C796.579 148.636 795.761 149.765 795.417 151.032C795.019 152.5 795.981 153.91 796.664 155.135L796.985 155.698L796.56 156.24L794.895 154.82L793.484 154.953L793.338 156.743C792.491 156.042 792.74 155.988 791.539 156.052C790.909 157.302 790.808 157.43 790.984 158.803C792.045 159.09 793.061 159.454 794.093 159.829L794.332 160.673C793.495 161.162 793.006 161.342 792.011 161.378C790.291 161.441 788.07 160.67 786.849 159.516C787.616 159.284 788.352 159.107 789.14 158.951L790.03 158.781L790.383 157.959C789.993 157.267 789.639 156.687 788.985 156.208C787.066 154.804 785.712 154.884 783.47 155.299C781.603 155.644 779.861 156.19 778.128 155.264L778.113 154.699C780.25 151.345 785.219 148.929 788.565 146.915C785.799 147.686 781.916 149.149 779.172 148.086L778.984 147.348C783.595 146.27 786.854 144.629 790.824 142.148C786.558 142.853 782.259 143.336 777.992 144.066C782.121 140.97 786.057 137.856 789.865 134.368C787.048 135.604 783.911 136.937 780.784 136.787C779.114 136.707 777.98 136.573 776.875 135.285L777.196 134.02C778.789 132.159 780.415 131.34 782.568 130.267C781.402 129.714 780.209 129.278 779.025 128.774C777.577 128.157 776.682 127.7 776.099 126.212C776.723 123.69 779.455 123.03 780.214 120.821C780.802 119.112 774.613 116.521 773.597 114.489C772.498 112.29 775.273 110.397 775.907 108.322C774.87 107.572 773.82 106.83 772.862 105.979C771.784 105.021 771.597 105.013 771.518 103.622C772.502 102.539 773.884 101.429 774.014 99.9055C770.186 96.3079 771.168 89.7728 769.718 84.7596C765.856 93.3167 766.87 93.3217 766.306 102.039C766.156 104.352 764.295 105.102 762.638 106.428C762.795 108.111 764.2 108.577 764.918 109.923C765.583 111.171 765.329 111.669 764.931 112.892C763.87 113.635 763.121 113.732 761.867 113.846C761.721 113.859 760.48 113.938 760.289 114.016C760.026 114.122 759.818 114.334 759.582 114.493L759.702 114.038L758.933 114.352C759.936 117.719 764.012 119.673 764.674 122.915C764.832 123.684 764.366 124.044 763.981 124.66C762.028 125.87 760.129 126.002 757.897 126.281C759.522 128.321 762.509 131.324 762.437 134.049C762.414 134.92 761.919 135.151 761.365 135.743C758.961 136.757 756.159 136.349 753.594 136.262C755.34 137.908 758.216 140.107 759.089 142.369C759.402 143.179 759.072 143.427 758.752 144.153C757.033 145.391 755.024 145.351 752.982 145.537C755.642 148.146 757.926 150.774 760.15 153.763C757.58 152.909 754.927 151.544 752.264 151.154C751.819 152.556 752.579 153.315 753.197 154.598C752.783 156.427 750.441 155.561 749.466 157.219C751.341 159.186 754.107 160.638 756.382 162.146C750.669 161.112 744.835 159.712 739.017 159.601C741.221 158.454 744.876 157.06 745.747 154.604L745.017 153.765C742.461 152.874 739.835 153.091 737.163 153.124C739.533 151.911 742.439 150.501 744.018 148.312L743.818 147.283C742.014 146.075 739.606 146.218 737.498 146.079C739.524 143.581 742.394 141.49 743.761 138.559L743.363 137.743C740.864 137.205 738.682 138.599 736.326 138.093L735.915 137.082C736.58 134.994 738.211 134.008 739.866 132.644L739.867 131.563C738.415 130.022 736.65 129.523 734.703 128.795C735.693 126.726 736.705 124.667 737.737 122.619L732.508 120.1C733.427 118.219 734.941 115.749 734.682 113.669C728.789 112.294 732.384 109.77 731.69 105.618C731.456 104.22 730.266 102.668 729.507 101.487L728.784 112.215C727.592 113.37 726.558 114.349 725.776 115.844C726.09 116.107 726.514 116.441 726.758 116.762C727.635 117.924 727.518 118.607 727.501 119.991C726.628 121.349 725.885 122.496 725.467 124.084C725.707 124.885 726.137 125.952 726.16 126.778C726.211 128.722 724.094 129.226 722.989 130.67C724.151 132.002 725.579 133.175 725.934 134.92C724.779 135.858 724.157 136.283 723.678 137.75C723.836 139.819 725.151 141.529 726.217 143.252C723.814 142.613 721.406 141.991 718.994 141.386C720.41 143.724 723.161 147.255 722.478 150.075C721.062 151.116 720.169 150.942 718.44 151.052L718.096 151.723C719.357 153.938 721.623 155.518 723.541 157.157L723.309 157.597L721.639 157.016C720.969 156.862 720.276 156.679 719.587 156.623C717.326 156.441 717.01 156.517 715.334 158.064C716.373 160.194 718.552 161.963 719.937 163.965L719.501 164.525C718.926 164.478 718.57 164.472 718.034 164.363C710.035 162.738 704.18 132.486 698.768 124.983C696.732 125.266 694.497 125.509 692.627 126.402C685.578 129.767 674.647 144.767 667.567 144.257C665.963 144.14 665.61 143.665 664.684 142.526C663.752 137.036 668.22 131.045 669.454 125.738C671.097 118.68 659.942 116.236 656.175 111.806C652.848 107.891 650.892 102.273 648.048 97.9243C646.554 95.6399 644.964 93.5086 642.175 92.927C638.387 95.4828 637.318 108.144 633.834 112.922C630.166 117.953 622.754 117.991 618.29 122.694C609.174 132.302 628.378 137.414 628.548 146.158L627.723 147.002C614.462 151.735 592.479 133.784 579.752 129.373C567.153 132.583 548.837 145.592 537.058 152.335C521.317 161.345 505.535 170.063 489.284 178.129C492.011 174.663 494.333 171.68 494.179 167.048C494.084 164.21 493.804 159.799 491.369 157.86C485.192 152.939 470.555 166.401 463.236 167.159C461.866 167.301 460.539 167.124 459.472 166.187C457.41 164.379 466.175 148.273 465.666 142.362C465.514 140.599 464.749 139.036 463.314 137.978C461.578 136.697 459.147 136.344 457.064 136.093C442.459 134.343 437.895 148.386 424.759 150.617C422.597 150.985 420.365 150.816 418.604 149.387C417.232 148.274 416.176 146.681 416.088 144.883C415.785 138.748 420.823 133.589 424.632 129.386C420.783 127.915 417.11 126.598 413.537 124.514C409.433 116.861 411.484 108.044 407.488 100.556C404.154 94.3058 395.988 91.7689 391.87 85.7994C388.586 81.0387 387.354 71.9855 384.463 66.2477C383.741 64.8152 382.984 63.0368 381.355 62.497C377.517 65.2357 376.058 77.3467 373.064 81.6769C368.601 88.1306 359.247 90.1048 355.162 96.8944C350.802 104.139 358.687 112.018 360.051 119.034C360.6 121.854 360.066 124.259 358.364 126.576C351.392 136.066 340.209 122 332.143 124.084C329.881 124.668 328.403 126.18 327.387 128.226C319.462 144.175 330.272 148.583 333.712 160.654C334.18 162.295 334.179 163.455 333.375 165.008C329.282 167.07 308.595 148.087 303.875 145.004C299.769 142.323 295.701 140.673 291.038 139.225C276.433 144.717 278.552 152.948 272.167 164.435C270.92 166.678 269.278 168.346 266.713 168.931C258.751 170.746 249.047 163.022 242.729 158.885C227.957 163.127 216.317 172.439 200.93 176.399C199.8 172.352 198.347 168.53 196.767 164.64C195.76 167.822 194.744 171.673 192.726 174.348C189.729 178.322 185.224 178.508 180.685 179.111C183.3 177.909 188.887 176.112 190.162 173.439C189.111 172.638 187.17 172.957 185.839 172.932L185.424 172.412C186.652 171.316 187.633 170.395 188.491 168.958L188.186 168.169C185.649 167.308 182.584 167.823 179.935 167.961C181.461 167.305 183.276 166.62 184.595 165.609C185.725 164.744 186.613 163.641 186.777 162.207C185.175 161.17 182.346 161.495 180.403 161.371L179.809 160.661C180.505 158.686 182.642 158.006 183.021 156.042C181.77 155.219 180.945 154.639 180.033 153.418L180.225 152.503C181.237 151.717 181.905 151.16 182.537 150.036L182.24 149.083C180.202 148.353 179.165 147.786 178.263 145.787C177.755 144.659 176.606 141.832 177.009 140.708C186.935 139.862 199.673 156.724 208.385 161.622C210.376 162.742 211.837 163.161 214.084 162.557C218.637 158.387 221.108 151.455 224.115 146.124C229.328 136.88 236.597 128.745 244.207 121.419C249.102 116.708 254.838 111.314 261.502 109.31C275.109 105.216 286.526 123.912 298.804 116.913C304.804 113.494 309.778 106.047 314.2 100.772C321.98 91.5055 329.845 82.3108 337.795 73.1884C344.638 65.2963 351.474 56.8118 359.685 50.2995C363.328 47.4107 366.786 45.2585 371.318 44Z" fill="#363231"/>
</svg>
