<svg xmlns="http://www.w3.org/2000/svg" width="24" height="24"><path d="M21 21h-1.713l-.658-1.846h-3L14.966 21h-1.659l3.04-8h1.603L21 21zm-2.814-3.12-1.049-3.018-1.054 3.018h2.103zM8.722 5.843l.125-.562-1.02-.199-.101.464a4.437 4.437 0 0 0-1.083-.019c.009-.249.023-.494.045-.728h1.141v-.966H6.825c.049-.246.092-.394.134-.533L5.962 3a7.042 7.042 0 0 0-.195.833H4.629v.966h1.014c-.027.312-.043.637-.048.964C4.476 6.174 4 6.958 4 7.668c0 .84.663 1.578 1.709 1.482 1.301-.118 2.169-1.1 2.679-2.308.525.303.746.814.548 1.286-.185.436-.725.852-1.757.831V10c1.146.018 2.272-.417 2.715-1.469.431-1.028-.062-2.151-1.172-2.688zm-1.342.71c-.162.36-.375.717-.648.998-.041-.3-.07-.628-.086-.978.249-.032.499-.038.734-.02zm-1.758.336c.028.44.078.844.148 1.205-.927.169-.963-.744-.148-1.205zM21 12c.552 0 1 .449 1 1v8c0 .551-.448 1-1 1h-8c-.552 0-1-.449-1-1v-8c0-.551.448-1 1-1h8zm0-2h-8a3 3 0 0 0-3 3v8a3 3 0 0 0 3 3h8a3 3 0 0 0 3-3v-8a3 3 0 0 0-3-3zM8 13c0-.342.035-.677.102-1H3c-.552 0-1-.449-1-1V3c0-.551.448-1 1-1h8c.552 0 1 .449 1 1v5.101A4.988 4.988 0 0 1 13 8h1V3a3 3 0 0 0-3-3H3a3 3 0 0 0-3 3v8a3 3 0 0 0 3 3h5v-1z"/></svg>