<svg viewBox="0 0 64 64" xmlns="http://www.w3.org/2000/svg"><g fill="#c4a2fc"><path d="M37.07 39.222C31.076 39.784 28 41.279 28 42s3.077 2.216 9.07 2.778a55.804 55.804 0 0 1 0-5.556zM44.922 39.077a54.988 54.988 0 0 0-5.844 0 54.97 54.97 0 0 0 0 5.845 54.99 54.99 0 0 0 5.844 0 54.974 54.974 0 0 0 0-5.845zM46.93 39.222c.09 1.826.096 3.625 0 5.556C52.924 44.216 56 42.72 56 42s-3.077-2.216-9.07-2.778zM44.778 37.069c-.562-5.992-2.057-9.07-2.778-9.07s-2.216 3.078-2.778 9.07a55.787 55.787 0 0 1 5.556 0zM39.222 46.93C39.784 52.924 41.279 56 42 56s2.216-3.078 2.778-9.07c-1.826.09-3.626.095-5.556 0zM46.791 46.79a26.058 26.058 0 0 1-2.056 8.938 14.036 14.036 0 0 0 10.993-10.993 26.056 26.056 0 0 1-8.937 2.056z" style="fill:#f88282"/><path d="M42 21a21.017 21.017 0 0 0-9.724 2.39l-13.862-6.3a1 1 0 0 0-1.324 1.324l6.302 13.863A20.997 20.997 0 1 0 42 21zm0 37a16 16 0 1 1 16-16 16.018 16.018 0 0 1-16 16z" style="fill:#f88282"/><path d="M46.791 37.209a26.056 26.056 0 0 1 8.937 2.055 14.036 14.036 0 0 0-10.993-10.992 26.057 26.057 0 0 1 2.056 8.937zM37.21 46.79a26.057 26.057 0 0 1-8.938-2.055 14.036 14.036 0 0 0 10.993 10.993 26.057 26.057 0 0 1-2.056-8.937zM37.21 37.209a26.057 26.057 0 0 1 2.055-8.937 14.036 14.036 0 0 0-10.993 10.992 26.057 26.057 0 0 1 8.937-2.055z" style="fill:#f88282"/></g><path d="m50.323 10.126-6.546-8.001A3.083 3.083 0 0 0 41.382 1H20.846a3.084 3.084 0 0 0-2.396 1.126l-6.544 8a2.931 2.931 0 0 0 0 3.748L17.735 21h-7.117a3.084 3.084 0 0 0-2.396 1.126l-6.545 8a2.93 2.93 0 0 0 0 3.748l6.75 8.251-3.798 7.428a1.015 1.015 0 0 0 1.482 1.279L18.128 43h13.026a3.081 3.081 0 0 0 2.396-1.126l6.544-8a2.93 2.93 0 0 0 .001-3.748l-5.382-6.578 11.175 7.284a1.014 1.014 0 0 0 1.483-1.28l-3.799-7.427 6.75-8.25a2.931 2.931 0 0 0 .001-3.749zM38.497 32.625l-6.544 7.999a1.028 1.028 0 0 1-.799.376H17.818a1.04 1.04 0 0 0-.567.168l-9.07 5.911 2.37-4.632a.983.983 0 0 0-.116-1.072l-7.16-8.751a.976.976 0 0 1 0-1.249l6.545-7.999a1.028 1.028 0 0 1 .799-.376h21.026l6.853 8.375a.976.976 0 0 1 0 1.25zm10.228-20-7.16 8.75a.982.982 0 0 0-.115 1.072l2.369 4.632-9.07-5.911a1.04 1.04 0 0 0-.567-.168H20.355l-6.853-8.375a.977.977 0 0 1 .001-1.25l6.544-7.999a1.028 1.028 0 0 1 .8-.376h20.535a1.026 1.026 0 0 1 .798.375l6.546 8a.977.977 0 0 1-.001 1.25z" fill="#151a6a" style="fill:#0c0c0e"/><path d="M22.118 25.77a1.335 1.335 0 0 0-2.43.026l-4.864 11.831a.992.992 0 0 0 .567 1.3 1.034 1.034 0 0 0 1.33-.554l.954-2.32h6.432l.943 2.317a1.03 1.03 0 0 0 1.329.559.992.992 0 0 0 .571-1.3zm-3.62 8.284 2.407-5.858 2.387 5.858zM36.228 7a1 1 0 1 0 0-2h-8.182a1 1 0 1 0 0 2h4.848a18.555 18.555 0 0 1-2.865 6.406 21.683 21.683 0 0 1-3.14-3.903 1.036 1.036 0 0 0-1.397-.37.988.988 0 0 0-.38 1.363 23.014 23.014 0 0 0 3.596 4.457 8.817 8.817 0 0 1-3.036 2.1.994.994 0 0 0-.642 1.263 1.027 1.027 0 0 0 1.294.633 10.856 10.856 0 0 0 3.907-2.676 12.987 12.987 0 0 0 5.83 2.713 1.02 1.02 0 0 0 1.176-.821 1.003 1.003 0 0 0-.841-1.151 10.89 10.89 0 0 1-4.842-2.271A20.587 20.587 0 0 0 34.992 7z" fill="#151a6a" style="fill:#0c0c0e"/></svg>