<svg viewBox="0 -21 470.4 470" xmlns="http://www.w3.org/2000/svg"><path d="M234.398 4.2h-37.597c14.398 0 25.597 11.198 25.597 25.6v176c0 14.4-11.199 25.598-25.597 25.598h37.597c14.403 0 25.602-11.199 25.602-25.597v-176c0-13.602-11.2-25.602-25.602-25.602zm0 0" fill="#efc36a" style="fill:#e0ef6b"/><path d="M196.8 4.2H29.603C15.199 4.2 4 16.2 4 29.8v176c0 14.4 11.2 25.598 25.602 25.598H36L104.8 285l-.8-53.602h92c14.398 0 25.602-11.199 25.602-25.597v-176c.796-13.602-10.403-25.602-24.801-25.602zm0 0" fill="#f9dd9d" style="fill:#dcf99f"/><path d="M18.398 221V33.8c0-8 6.403-14.402 14.403-14.402h178.398c3.2 0 6.403.801 8.801 1.602-4-9.602-12.8-16-24-16H29.602C15.199 4.2 4 16.2 4 29.8v176c0 11.2 7.2 20.802 16.8 24-1.6-2.402-2.402-5.6-2.402-8.8zm0 0" fill="#fffbe1"/><path d="M135.2 137.8H92.8l-8 22.4h-9.6l34.402-92.802H120l34.398 92.801h-9.597zm-21.598-58.402-18.403 50.403H132zm0 0" fill="#fff2d2"/><g fill="#63312d"><path d="m119.2 67.398 34.402 92.801H144l-8-22.398H93.602l-8 22.398H76l34.398-92.8zm-24 62.403H132l-18.398-50.403zm29.6-70.403h-21.6L101.601 65l-34.403 92.8-4 10.4h26.403l1.597-5.598 6.403-16.801H128.8l6.398 16.8 1.602 5.598h26.398l-4-10.398L124.801 65zm-18.402 62.403 7.204-19.2 7.199 19.2zm0 0"/><path d="M234.398.2H29.602C12.8.2 0 13.8 0 29.8v176c0 16.802 13.602 29.598 29.602 29.598h5.597l20 15.204V265h8v-8l40 31.2c.801.8 1.602.8 2.403.8.796 0 1.597 0 1.597-.8 1.602-.802 2.403-2.4 2.403-4l-.801-49.598h125.597C251.2 234.602 264 221 264 205V29.8c0-16-12.8-29.6-29.602-29.6zm-129.597 228c-.801 0-2.403.8-3.2.8-.8.8-.8 1.602-.8 3.2v45.6L38.398 229c-.796-.8-1.597-.8-2.398-.8h-6.398A21.51 21.51 0 0 1 8 206.601V29.8c0-12 9.602-21.602 21.602-21.602H196.8c10.398 0 19.199 7.2 21.597 17.602 0 1.597.801 3.199.801 4.8v176c0 1.598 0 3.2-.8 4.797C216 221 207.198 229 196.8 229zM256 206.601c0 12-9.602 21.597-21.602 21.597h-17.597l2.398-2.398c.801-.801.801-1.602 1.602-1.602.8-.8 1.597-2.398 1.597-3.199s.801-1.602.801-2.398c.801-1.602.801-2.403 1.602-4 0-.801.8-1.602.8-1.602.797-1.602.797-4 .797-6.398V29.8c0-2.403 0-4-.796-6.403 0-.796-.801-1.597-.801-1.597 0-1.602-.801-2.403-1.602-4 0-.801-.8-1.602-.8-2.403-.797-.796-.797-2.398-1.598-3.199s-.801-1.597-1.602-1.597c-.8-.801-1.597-1.602-2.398-2.403v-.8h17.597C246.398 7.398 256 17 256 29zM146.398 333.8 140 338.603 160.8 365 140 391.398l6.398 4.801 22.403-28.8c.8-1.598.8-3.2 0-4.797zM54.398 313.8h8v16h-8zM54.398 281.8h8v16h-8zM54.398 345.8h8v16h-8zM70.398 361h16v8h-16zm0 0"/><path d="M134.398 361h16v8h-16zM102.398 361h16v8h-16zM320.8 121l-22.402-28.8c-.796-1.598-.796-3.2 0-4.802l22.403-28.796 6.398 4.796-20.8 26.403 20.8 26.398zm0 0"/></g><path d="M442.398 205h-40c13.602 0 24 10.398 24 24v170.398c0 13.602-10.398 24-24 24h40c13.602 0 24-10.398 24-24V229c0-13.602-10.398-24-24-24zm0 0" fill="#52badb" style="fill:#db5151"/><path d="M402.398 205H388l-62.398-52v52H232c-13.602 0-24 10.398-24 24v170.398c0 13.602 10.398 24 24 24h170.398c13.602 0 24-10.398 24-24V229c0-13.602-10.398-24-24-24zm0 0" fill="#84dbff" style="fill:#ff8585"/><path d="m340 164.2-14.398-12v52H232c-13.602 0-24 10.402-24 24v170.402C208 409 214.398 417.8 224 421c-.8-2.398-1.602-5.602-1.602-8.8v-180c0-7.2 6.403-13.598 13.602-13.598h104zm0 0" fill="#c5f1ff" style="fill:#ffc7c7"/><path d="M357.602 288.2H376v-8h-55.2v-16.802h-8V280.2H260v8h16c3.2 8.801 12.8 33.602 34.398 53.602-9.597 7.199-22.398 13.597-36.796 16l1.597 8c16.801-3.2 30.403-10.403 41.602-18.403 11.199 8.801 24.8 15.204 41.597 18.403l1.602-8c-14.398-2.403-27.2-8.801-36.8-16 22.402-20 32-45.602 34.402-53.602zm-40 48c-19.204-16.802-28.801-38.4-32-48h64c-4 9.6-12.801 31.198-32 48zm0 0" fill="#fff2d2"/><path d="M321.602 262.602v16.796H376.8v8h-18.403c-3.199 8.801-12.796 34.403-35.199 54.403 9.602 7.199 22.403 13.597 36.801 16l-1.602 8c-16.796-3.2-30.398-10.403-41.597-18.403-11.2 8.801-24.801 15.204-41.602 18.403l-1.597-8c14.398-2.403 27.199-8.801 36.796-16C288.801 321.8 279.2 297 276 288.199h-16v-8h52.8v-16.8h8.802m-4 72.8c19.199-16.8 28.796-38.398 32-48h-64c3.199 9.602 12 31.2 32 48m12-81.597h-24v16.796H252.8v24h18.398c4 10.403 12.801 28 27.2 44-8 4.801-16.797 8-25.598 9.602l-8 1.602 1.597 8 3.204 16 8-1.602c14.398-2.398 28-8 40-16.8 12 8 25.597 13.6 40 16.8l8 1.602 1.597-8 1.602-8 1.597-8-8-1.602c-8.796-1.602-17.597-4.8-25.597-9.602 15.199-16 23.199-33.597 27.199-44h20.8v-24h-55.198zM296.8 296.199h40c-4 8.801-10.403 19.2-20 29.602-8.801-10.403-16-21.602-20-29.602zm0 0" fill="#63312d"/><path d="M442.398 201h-36v-12h-8v12h-8.796L328 149.8c-1.602-.8-3.2-.8-4-.8-1.602.8-2.398 2.398-2.398 4v48H232c-15.2 0-28 12.8-28 28v170.398c0 15.204 12.8 28 28 28h210.398c15.204 0 28-12.796 28-28V229c0-16-12-28-28-28zM212 399.398V229c0-11.2 8.8-20 20-20h93.602c2.398 0 4-1.602 4-4v-43.2l56 46.4c.796.8 1.597.8 2.398.8h14.398c11.204 0 20 8.8 20 20v170.398c0 11.204-8.796 20-20 20H232c-11.2 0-20-8.796-20-20zm250.398 0c0 11.204-8.796 20-20 20h-20.796c.796-.796 1.597-1.597 1.597-2.398.801-.8.801-1.602 1.602-1.602.8-.796.8-1.597 1.597-2.398 0-.8.801-1.602.801-2.398.801-.801.801-2.403.801-3.204 0-.796.8-1.597.8-1.597 0-1.602.802-4 .802-5.602V229c0-1.602 0-4-.801-5.602 0-.796-.801-1.597-.801-1.597 0-.801-.8-2.403-.8-3.2 0-.8-.802-1.601-.802-2.402-.796-.8-.796-1.597-1.597-2.398s-.801-1.602-1.602-1.602c-.8-.8-.8-1.597-1.597-2.398h20.796c11.204 0 20 8.8 20 20zM398.398 125h8v16h-8zM398.398 93h8v16h-8zM398.398 157h8v16h-8zM342.398 84.2h16v8h-16zM317.602 84.2h9.597v8h-9.597zM374.398 84.2h16v8h-16zm0 0" fill="#63312d"/></svg>