<svg xmlns="http://www.w3.org/2000/svg" viewBox="0 0 491.947 491.947" style="enable-background:new 0 0 491.947 491.947" xml:space="preserve"><path d="M445.12 208.64H283.414V46.933C283.414 21.013 262.401 0 236.48 0H46.614C20.811.118-.011 21.13.107 46.932v189.654c0 25.685 20.822 46.507 46.507 46.507h162.133v162.133c0 25.685 20.822 46.507 46.507 46.507h189.653c25.802.118 46.815-20.703 46.933-46.506V255.573c.001-25.837-20.883-46.816-46.72-46.933zm-236.373 47.146v6.188l-162.133-.214c-13.903 0-25.173-11.271-25.173-25.173V46.933c-.118-14.02 11.151-25.482 25.172-25.6h189.655c14.138 0 25.6 11.462 25.6 25.6v161.92h-6.613c-25.804.118-46.626 21.13-46.508 46.933zM470.72 445.227c-.117 14.02-11.578 25.291-25.598 25.173H255.467c-13.903 0-25.173-11.27-25.173-25.173V255.573c-.118-14.02 11.151-25.482 25.172-25.6H445.12c14.138 0 25.6 11.461 25.6 25.6v189.654z" style="fill:#050505"/><path d="m413.334 416.853-52.907-140.587c-2.621-5.538-9.235-7.902-14.773-5.28a11.096 11.096 0 0 0-5.28 5.28L288.747 416.64c-2.062 5.538.756 11.698 6.293 13.76 5.538 2.062 11.698-.756 13.76-6.293l12.587-33.707h59.307l12.587 33.707a10.668 10.668 0 0 0 10.027 7.04c5.891-.003 10.665-4.78 10.662-10.671a10.704 10.704 0 0 0-.636-3.623zM328.64 369.28l21.333-58.667 21.333 58.667H328.64zM209.387 209.493a95.568 95.568 0 0 1-50.773-14.72 117.334 117.334 0 0 0 32.853-71.253h17.92c5.891 0 10.667-4.776 10.667-10.667s-4.776-10.667-10.667-10.667h-56.96v-39.04c0-5.891-4.776-10.667-10.667-10.667s-10.667 4.776-10.667 10.667v39.04H73.707c-5.891 0-10.667 4.776-10.667 10.667s4.776 10.667 10.667 10.667H91.84a117.55 117.55 0 0 0 32.853 71.253 96.216 96.216 0 0 1-50.773 14.72c-5.891 0-10.667 4.776-10.667 10.667s4.776 10.667 10.667 10.667a117.763 117.763 0 0 0 67.84-21.333 117.123 117.123 0 0 0 67.627 21.333c5.891 0 10.667-4.776 10.667-10.667s-4.776-10.667-10.667-10.667zm-95.573-85.973h55.893a95.996 95.996 0 0 1-27.947 58.453 96.208 96.208 0 0 1-27.946-58.453zM491.414 160.853C491.298 72.397 419.868.586 331.414 0c-5.891 0-10.667 4.776-10.667 10.667s4.776 10.667 10.667 10.667c74.301.138 135.458 58.482 139.093 132.693h-35.2c-5.891 0-10.667 4.776-10.667 10.667s4.776 10.667 10.667 10.667h45.44c5.891 0 10.667-4.776 10.667-10.667.06-.639.06-1.281 0-1.92.06-.639.06-1.282 0-1.921zM160.747 470.613c-74.222-.132-135.348-58.352-139.093-132.48H56.64c5.891 0 10.667-4.776 10.667-10.667S62.531 316.8 56.64 316.8H11.414c-5.891 0-10.667 4.776-10.667 10.667a9.93 9.93 0 0 0 0 1.707 9.93 9.93 0 0 0 0 1.707c-.002 88.54 71.462 160.48 160 161.067 5.891 0 10.667-4.776 10.667-10.667s-4.776-10.668-10.667-10.668z" style="fill:#050505"/></svg>